<?xml version="1.0" encoding="UTF-8" standalone="no"?><svg xmlns="http://www.w3.org/2000/svg" xmlns:xlink="http://www.w3.org/1999/xlink" contentScriptType="application/ecmascript" contentStyleType="text/css" height="482px" preserveAspectRatio="none" style="width:1080px;height:482px;" version="1.1" viewBox="0 0 1080 482" width="1080px" zoomAndPan="magnify"><defs/><g><!--cluster Typora--><polygon fill="#FFFFFF" points="146,32,217,32,224,64.2969,499,64.2969,499,182,146,182,146,32" style="stroke: #3498DB; stroke-width: 1.5;"/><line style="stroke: #3498DB; stroke-width: 1.5;" x1="146" x2="224" y1="64.2969" y2="64.2969"/><text fill="#2C3E50" font-family="Roboto" font-size="14" font-weight="bold" lengthAdjust="spacingAndGlyphs" textLength="55" x="155" y="51.9951">Typora</text><!--cluster Atom--><polygon fill="#FFFFFF" points="770,45.5,827,45.5,834,77.7969,1058,77.7969,1058,168.5,770,168.5,770,45.5" style="stroke: #3498DB; stroke-width: 1.5;"/><line style="stroke: #3498DB; stroke-width: 1.5;" x1="770" x2="834" y1="77.7969" y2="77.7969"/><text fill="#2C3E50" font-family="Roboto" font-size="14" font-weight="bold" lengthAdjust="spacingAndGlyphs" textLength="41" x="779" y="65.4951">Atom</text><!--cluster Dev--><polygon fill="#FFFFFF" points="770,333.5,925,333.5,932,365.7969,1058,365.7969,1058,456.5,770,456.5,770,333.5" style="stroke: #3498DB; stroke-width: 1.5;"/><line style="stroke: #3498DB; stroke-width: 1.5;" x1="770" x2="932" y1="365.7969" y2="365.7969"/><text fill="#2C3E50" font-family="Roboto" font-size="14" font-weight="bold" lengthAdjust="spacingAndGlyphs" textLength="139" x="779" y="353.4951">Developer Engine</text><!--cluster Jekyll--><polygon fill="#FFFFFF" points="30,320,86,320,93,352.2969,516,352.2969,516,470,30,470,30,320" style="stroke: #3498DB; stroke-width: 1.5;"/><line style="stroke: #3498DB; stroke-width: 1.5;" x1="30" x2="93" y1="352.2969" y2="352.2969"/><text fill="#2C3E50" font-family="Roboto" font-size="14" font-weight="bold" lengthAdjust="spacingAndGlyphs" textLength="40" x="39" y="339.9951">Jekyll</text><!--entity mmd1--><rect fill="#18BC9C" height="72.5938" style="stroke: #0F7864; stroke-width: 1.5;" width="93" x="362.5" y="85"/><rect fill="#18BC9C" height="5" style="stroke: #0F7864; stroke-width: 1.5;" width="10" x="357.5" y="90"/><rect fill="#18BC9C" height="5" style="stroke: #0F7864; stroke-width: 1.5;" width="10" x="357.5" y="147.5938"/><text fill="#FFFFFF" font-family="Roboto" font-size="14" lengthAdjust="spacingAndGlyphs" textLength="59" x="379.5" y="112.9951">Mermaid</text><text fill="#FFFFFF" font-family="Roboto" font-size="14" lengthAdjust="spacingAndGlyphs" textLength="63" x="377.5" y="139.292">diagrams</text><!--entity CodeMirror\nsyntax highlighting--><rect fill="#18BC9C" height="72.5938" style="stroke: #0F7864; stroke-width: 1.5;" width="158" x="170" y="85"/><rect fill="#18BC9C" height="5" style="stroke: #0F7864; stroke-width: 1.5;" width="10" x="165" y="90"/><rect fill="#18BC9C" height="5" style="stroke: #0F7864; stroke-width: 1.5;" width="10" x="165" y="147.5938"/><text fill="#FFFFFF" font-family="Roboto" font-size="14" lengthAdjust="spacingAndGlyphs" textLength="76" x="211" y="112.9951">CodeMirror</text><text fill="#FFFFFF" font-family="Roboto" font-size="14" lengthAdjust="spacingAndGlyphs" textLength="128" x="185" y="139.292">syntax highlighting</text><!--entity PU1--><rect fill="#18BC9C" height="46.2969" style="stroke: #0F7864; stroke-width: 1.5;" width="93" x="813.5" y="98.5"/><rect fill="#18BC9C" height="5" style="stroke: #0F7864; stroke-width: 1.5;" width="10" x="808.5" y="103.5"/><rect fill="#18BC9C" height="5" style="stroke: #0F7864; stroke-width: 1.5;" width="10" x="808.5" y="134.7969"/><text fill="#FFFFFF" font-family="Roboto" font-size="14" lengthAdjust="spacingAndGlyphs" textLength="63" x="828.5" y="126.4951">PlantUML</text><!--entity GV1--><rect fill="#18BC9C" height="46.2969" style="stroke: #0F7864; stroke-width: 1.5;" width="92" x="942" y="98.5"/><rect fill="#18BC9C" height="5" style="stroke: #0F7864; stroke-width: 1.5;" width="10" x="937" y="103.5"/><rect fill="#18BC9C" height="5" style="stroke: #0F7864; stroke-width: 1.5;" width="10" x="937" y="134.7969"/><text fill="#FFFFFF" font-family="Roboto" font-size="14" lengthAdjust="spacingAndGlyphs" textLength="62" x="957" y="126.4951">GraphViz</text><!--entity PU2--><rect fill="#18BC9C" height="46.2969" style="stroke: #0F7864; stroke-width: 1.5;" width="93" x="813.5" y="386.5"/><rect fill="#18BC9C" height="5" style="stroke: #0F7864; stroke-width: 1.5;" width="10" x="808.5" y="391.5"/><rect fill="#18BC9C" height="5" style="stroke: #0F7864; stroke-width: 1.5;" width="10" x="808.5" y="422.7969"/><text fill="#FFFFFF" font-family="Roboto" font-size="14" lengthAdjust="spacingAndGlyphs" textLength="63" x="828.5" y="414.4951">PlantUML</text><!--entity GV2--><rect fill="#18BC9C" height="46.2969" style="stroke: #0F7864; stroke-width: 1.5;" width="92" x="942" y="386.5"/><rect fill="#18BC9C" height="5" style="stroke: #0F7864; stroke-width: 1.5;" width="10" x="937" y="391.5"/><rect fill="#18BC9C" height="5" style="stroke: #0F7864; stroke-width: 1.5;" width="10" x="937" y="422.7969"/><text fill="#FFFFFF" font-family="Roboto" font-size="14" lengthAdjust="spacingAndGlyphs" textLength="62" x="957" y="414.4951">GraphViz</text><!--entity mmd2--><rect fill="#18BC9C" height="72.5938" style="stroke: #0F7864; stroke-width: 1.5;" width="93" x="379.5" y="373"/><rect fill="#18BC9C" height="5" style="stroke: #0F7864; stroke-width: 1.5;" width="10" x="374.5" y="378"/><rect fill="#18BC9C" height="5" style="stroke: #0F7864; stroke-width: 1.5;" width="10" x="374.5" y="435.5938"/><text fill="#FFFFFF" font-family="Roboto" font-size="14" lengthAdjust="spacingAndGlyphs" textLength="59" x="396.5" y="400.9951">Mermaid</text><text fill="#FFFFFF" font-family="Roboto" font-size="14" lengthAdjust="spacingAndGlyphs" textLength="63" x="394.5" y="427.292">diagrams</text><!--entity Pygments\nsyntax highlighting--><rect fill="#18BC9C" height="72.5938" style="stroke: #0F7864; stroke-width: 1.5;" width="158" x="187" y="373"/><rect fill="#18BC9C" height="5" style="stroke: #0F7864; stroke-width: 1.5;" width="10" x="182" y="378"/><rect fill="#18BC9C" height="5" style="stroke: #0F7864; stroke-width: 1.5;" width="10" x="182" y="435.5938"/><text fill="#FFFFFF" font-family="Roboto" font-size="14" lengthAdjust="spacingAndGlyphs" textLength="69" x="231.5" y="400.9951">Pygments</text><text fill="#FFFFFF" font-family="Roboto" font-size="14" lengthAdjust="spacingAndGlyphs" textLength="128" x="202" y="427.292">syntax highlighting</text><!--entity Bootstrap--><rect fill="#18BC9C" height="46.2969" style="stroke: #0F7864; stroke-width: 1.5;" width="98" x="54" y="386.5"/><rect fill="#18BC9C" height="5" style="stroke: #0F7864; stroke-width: 1.5;" width="10" x="49" y="391.5"/><rect fill="#18BC9C" height="5" style="stroke: #0F7864; stroke-width: 1.5;" width="10" x="49" y="422.7969"/><text fill="#FFFFFF" font-family="Roboto" font-size="14" lengthAdjust="spacingAndGlyphs" textLength="68" x="69" y="414.4951">Bootstrap</text><!--entity md--><ellipse cx="508" cy="257" fill="#FFFFFF" rx="8" ry="8" style="stroke: #2C3E50; stroke-width: 2.0;"/><text fill="#2C3E50" font-family="Roboto" font-size="14" lengthAdjust="spacingAndGlyphs" textLength="102" x="457" y="291.9951">Markdown files</text><!--entity images--><ellipse cx="645" cy="257" fill="#FFFFFF" rx="8" ry="8" style="stroke: #2C3E50; stroke-width: 2.0;"/><text fill="#2C3E50" font-family="Roboto" font-size="14" lengthAdjust="spacingAndGlyphs" textLength="50" x="620" y="291.9951">Images</text><!--entity puml--><ellipse cx="778" cy="257" fill="#FFFFFF" rx="8" ry="8" style="stroke: #2C3E50; stroke-width: 2.0;"/><text fill="#2C3E50" font-family="Roboto" font-size="14" lengthAdjust="spacingAndGlyphs" textLength="94" x="731" y="291.9951">PlantUML files</text><!--link Typora to md--><path d="M498.6211,182.3477 C498.6733,182.757 498.7254,183.1668 498.7776,183.5768 C498.8821,184.3968 498.9866,185.218 499.0913,186.0398 C499.3006,187.6835 499.5102,189.3297 499.7197,190.9746 C500.5575,197.554 501.3925,204.1111 502.192,210.3899 C503.791,222.9475 505.2483,234.392 506.303,242.676 " fill="none" id="Typora-md" style="stroke: #2C3E50; stroke-width: 1.0;"/><polygon fill="#2C3E50" points="506.968,247.894,509.7994,238.4609,506.3366,242.934,501.8635,239.4712,506.968,247.894" style="stroke: #2C3E50; stroke-width: 1.0;"/><!--link Atom to puml--><path d="M778,169.0485 C778,169.8367 778,170.6291 778,171.4251 C778,196.898 778,226.108 778,242.676 " fill="none" id="Atom-puml" style="stroke: #2C3E50; stroke-width: 1.0;"/><polygon fill="#2C3E50" points="778,247.894,782,238.894,778,242.894,774,238.894,778,247.894" style="stroke: #2C3E50; stroke-width: 1.0;"/><!--link Atom to md--><path d="M769.73,126.589 C769.5606,126.6727 769.3889,126.7576 769.2148,126.8437 C768.8667,127.0158 768.509,127.1927 768.1421,127.3741 C762.2711,130.277 754.0193,134.3571 744.0478,139.2875 C724.1048,149.1483 697.2833,162.4101 668.8736,176.4571 C612.0543,204.5512 548.882,235.7865 521.679,249.237 " fill="none" id="Atom-md" style="stroke: #2C3E50; stroke-width: 1.0;"/><polygon fill="#2C3E50" points="517.155,251.473,526.9955,251.0685,521.6368,249.2564,523.449,243.8976,517.155,251.473" style="stroke: #2C3E50; stroke-width: 1.0;"/><!--link PU1 to PU2--><path d="M860,144.942 C860,198.405 860,332.804 860,386.162 " fill="none" id="PU1-PU2" style="stroke: #2C3E50; stroke-width: 1.0; stroke-dasharray: 7.0,7.0;"/><!--link puml to Dev--><path d="M778,266.092 C778,273.7848 778,286.3158 778,300.8378 C778,308.0988 778,315.8576 778,323.7582 C778,325.7334 778,327.7174 778,329.7048 C778,330.6984 778,331.6929 778,332.6875 C778,332.9362 778,333.1849 778,333.4335 " fill="none" id="puml-Dev" style="stroke: #2C3E50; stroke-width: 1.0;"/><polygon fill="#2C3E50" points="778,333.4335,782,324.4335,778,328.4335,774,324.4335,778,333.4335" style="stroke: #2C3E50; stroke-width: 1.0;"/><!--link images to Dev--><path d="M655.641,270.041 C671.1565,287.598 701.0123,321.3822 727.3473,351.1824 C740.5148,366.0825 752.8021,379.9865 761.9766,390.3681 C764.2702,392.9635 766.3693,395.3388 768.2389,397.4544 C768.7063,397.9833 769.1594,398.496 769.5976,398.9918 C769.7071,399.1158 769.8157,399.2387 769.9234,399.3606 " fill="none" id="images-Dev" style="stroke: #2C3E50; stroke-width: 1.0;"/><polygon fill="#2C3E50" points="652.151,266.092,655.1135,275.4848,655.462,269.8386,661.1081,270.1872,652.151,266.092" style="stroke: #2C3E50; stroke-width: 1.0;"/><!--link GV1 to GV2--><path d="M988,144.942 C988,198.405 988,332.804 988,386.162 " fill="none" id="GV1-GV2" style="stroke: #2C3E50; stroke-width: 1.0; stroke-dasharray: 7.0,7.0;"/><!--link md to Jekyll--><path d="M508,266.092 C508,273.7848 508,286.3158 508,300.8378 C508,304.4683 508,308.2233 508,312.0582 C508,313.9756 508,315.9131 508,317.8649 C508,318.3529 508,345.8072 508,346.2969 " fill="none" id="md-Jekyll" style="stroke: #2C3E50; stroke-width: 1.0;"/><polygon fill="#2C3E50" points="508,319.3314,512,310.3314,508,314.3314,504,310.3314,508,319.3314" style="stroke: #2C3E50; stroke-width: 1.0;"/><!--link images to Jekyll--><path d="M637.634,266.092 C623.6285,281.4775 592.006,316.216 563.501,347.5298 C549.2485,363.1867 535.7754,377.9874 525.6734,389.0848 C523.148,391.8591 520.8332,394.402 518.7696,396.6689 C518.2537,397.2356 517.7535,397.7851 517.2696,398.3166 C517.0277,398.5824 516.7898,398.8437 516.5562,399.1004 C516.4393,399.2288 516.3235,399.356 516.2088,399.482 " fill="none" id="images-Jekyll" style="stroke: #2C3E50; stroke-width: 1.0;"/><polygon fill="#2C3E50" points="516.2088,399.482,525.2252,395.5193,519.5746,395.7846,519.3093,390.1339,516.2088,399.482" style="stroke: #2C3E50; stroke-width: 1.0;"/><!--link mmd1 to mmd2--><path d="M411.119,158.144 C414.385,213.099 420.615,317.903 423.881,372.857 " fill="none" id="mmd1-mmd2" style="stroke: #2C3E50; stroke-width: 1.0; stroke-dasharray: 7.0,7.0;"/><!--
@startuml


skinparam shadowing false

skinparam Default {
  FontColor #2C3E50
  FontName Roboto
  TextAlignment center
}

skinparam LifelineStrategy solid

skinparam Padding 5
skinparam Roundcorner 5
skinparam minClassWidth 150

skinparam Activity {
  BackgroundColor #18BC9C
  BarColor #F39C12
  BorderColor #18BC9C
  EndColor #2C3E50
  FontColor white
  StartColor #2C3E50
}

skinparam ActivityDiamond {
  BackgroundColor #F39C12
  BorderColor #F39C12
  FontColor white
}

skinparam Actor {
  BackgroundColor white
  BorderColor #2C3E50
  FontColor #2C3E50
  StereotypeFontColor #95a5a6
}

skinparam Boundary {
  BackgroundColor white
  BorderColor #2C3E50
  FontColor #2C3E50
  StereotypeFontColor #95a5a6
}

skinparam Control {
  BackgroundColor white
  BorderColor #2C3E50
  FontColor #2C3E50
  StereotypeFontColor #95a5a6
}

skinparam Entity {
  BackgroundColor white
  BorderColor #2C3E50
  FontColor #2C3E50
  StereotypeFontColor #95a5a6
}

skinparam Arrow {
  Color #2C3E50
}

skinparam Cloud {
  BackgroundColor white
  BorderColor #95a5a6
  FontColor #2C3E50
  StereotypeFontColor #95a5a6
}

skinparam Frame {
  BackgroundColor white
  BorderColor #3498DB
  FontColor #2C3E50
  StereotypeFontColor #95a5a6
}

skinparam Agent {
  BackgroundColor #18BC9C
  BorderColor #0f7864
  FontColor white
  StereotypeFontColor #0f7864
}

skinparam Artifact {
  BackgroundColor #18BC9C
  BorderColor #0f7864
  FontColor white
  StereotypeFontColor #0f7864
}

skinparam Component {
  BackgroundColor #18BC9C
  BorderColor #0f7864
  FontColor white
  StereotypeFontColor #0f7864
}

skinparam Database {
  BackgroundColor #18BC9C
  BorderColor #0f7864
  FontColor white
  StereotypeFontColor #0f7864
}

skinparam File {
  BackgroundColor #18BC9C
  BorderColor #0f7864
  FontColor white
  StereotypeFontColor #0f7864
}

skinparam Stack {
  BackgroundColor #18BC9C
  BorderColor #0f7864
  FontColor white
  StereotypeFontColor #0f7864
}

skinparam Storage {
  BackgroundColor #18BC9C
  BorderColor #0f7864
  FontColor white
  StereotypeFontColor #0f7864
}

skinparam Folder {
  BackgroundColor white
  BorderColor #3498DB
  FontColor #2C3E50
  StereotypeFontColor #95a5a6
}

skinparam Node {
  BackgroundColor white
  BorderColor #3498DB
  FontColor #2C3E50
  StereotypeFontColor #95a5a6
}

skinparam Package {
  BackgroundColor white
  BorderColor #3498DB
  StereotypeFontColor #95a5a6
}

skinparam Queue {
  BackgroundColor #18BC9C
  BorderColor #0f7864
  FontColor white
  StereotypeFontColor #0f7864
}

skinparam Interface {
  BackgroundColor white
  BorderColor #2C3E50
  StereotypeFontColor #95a5a6
}

skinparam Note {
  BackgroundColor #3498DB
  BorderColor #3498DB
  FontColor white
}

skinparam Object {
  AttributeFontColor #2C3E50
  BackgroundColor #18BC9C
  BorderColor #0f7864
  EndColor #2C3E50
  FontColor white
  StereotypeFontColor #0f7864
}

skinparam Participant {
  BackgroundColor #ecf0f1
  BorderColor #2C3E50
  FontColor white
}

skinparam Partition {
  BorderColor #F39C12
  FontColor #3498DB
  FontStyle normal
}

skinparam Rectangle {
  BackgroundColor white
  BorderColor #F39C12
  FontColor #3498DB
  FontStyle normal
  StereotypeFontColor #f5f7f7
}

skinparam Sequence {
  LifeLineBackgroundColor #ecf0f1
  LifeLineBorderColor #18BC9C

  GroupBackgroundColor #F39C12
  GroupBorderColor #F39C12
  GroupFontColor #3498DB
  GroupFontStyle normal

  GroupHeaderFontColor white
  GroupHeaderFontStyle normal

}

skinparam State {
  AttributeFontColor #2C3E50
  BackgroundColor #18BC9C
  BorderColor #0f7864
  EndColor #2C3E50
  FontColor white
  StartColor #2C3E50
}

skinparam Swimlane {
  BorderColor #3498DB
  TitleFontColor #3498DB
  TitleFontSize 13
}

skinparam Usecase {
  BackgroundColor #18BC9C
  BorderColor #18BC9C
  FontColor white
  StereotypeFontColor #0f7864
}
  interface "Markdown files" as md
  interface "Images" as images
  interface "PlantUML files" as puml

  package Typora {
    Typora - -> md
    component "Mermaid\ndiagrams" as mmd1
    [CodeMirror\nsyntax highlighting]
  }

  package Atom {
    component "PlantUML" as PU1
    component "GraphViz" as GV1
    Atom - -> puml
    Atom - -> md
  }

  package "Developer Engine" as Dev {
    component "PlantUML" as PU2
    component "GraphViz" as GV2
    PU1 .. PU2
    puml - -> Dev
    images <- - Dev
    GV1 .. GV2
  }

  package Jekyll {
    md - -> Jekyll
    images -> Jekyll
    component "Mermaid\ndiagrams" as mmd2
    mmd1 .. mmd2
    [Pygments\nsyntax highlighting]
    [Bootstrap]
  }

@enduml

PlantUML version 1.2017.20(Mon Dec 11 16:57:05 UTC 2017)
(GPL source distribution)
Java Runtime: OpenJDK Runtime Environment
JVM: OpenJDK 64-Bit Server VM
Java Version: 1.8.0_141-8u141-b15-1~deb9u1-b15
Operating System: Linux
OS Version: 4.10.0-42-generic
Default Encoding: UTF-8
Language: en
Country: null
--></g></svg>